grf
version=1
nRows=14
nColumns=37
inDegrees=no
endheader
time	ground_force_1_vx	ground_force_1_vy	ground_force_1_vz	ground_force_1_px	ground_force_1_py	ground_force_1_pz	ground_moment_1_mx	ground_moment_1_my	ground_moment_1_mz	ground_force_2_vx	ground_force_2_vy	ground_force_2_vz	ground_force_2_px	ground_force_2_py	ground_force_2_pz	ground_moment_2_mx	ground_moment_2_my	ground_moment_2_mz	ground_force_3_vx	ground_force_3_vy	ground_force_3_vz	ground_force_3_px	ground_force_3_py	ground_force_3_pz	ground_moment_3_mx	ground_moment_3_my	ground_moment_3_mz	ground_force_4_vx	ground_force_4_vy	ground_force_4_vz	ground_force_4_px	ground_force_4_py	ground_force_4_pz	ground_moment_4_mx	ground_moment_4_my	ground_moment_4_mz
      0.00000000	      0.00000000	     -0.00000000	      0.00000000	      0.00000000	      0.00000000	      0.00000000	      0.00000000	      0.00000000	      0.00000000	      5.45846081	     44.68754578	   -378.20733643	   -360.17339006	  -1103.63198403	      0.00000000	      0.00000000	      0.00000000	   1493.47679387	     -5.71647233	    -40.20867107	   -345.24572754	   -347.91427588	   -702.74635761	      0.00000000	      0.00000000	     -0.00000000	  -2090.39779557	      0.00000000	     -0.00000000	      0.00000000	      0.00000000	      0.00000000	      0.00000000	      0.00000000	      0.00000000	      0.00000000
      0.01000000	      0.00000000	     -0.00000000	      0.00000000	      0.00000000	      0.00000000	      0.00000000	      0.00000000	      0.00000000	      0.00000000	      4.41445732	     45.65129471	   -380.66247559	   -359.91247142	  -1104.43480588	      0.00000000	      0.00000000	      0.00000000	   1477.97799570	     -5.76620453	    -40.13090465	   -345.72503662	   -347.38238043	   -702.51743693	      0.00000000	      0.00000000	     -0.00000000	  -2102.28338617	      0.00000000	     -0.00000000	      0.00000000	      0.00000000	      0.00000000	      0.00000000	      0.00000000	      0.00000000	      0.00000000
      0.02000000	      0.00000000	     -0.00000000	      0.00000000	      0.00000000	      0.00000000	      0.00000000	      0.00000000	      0.00000000	      0.00000000	      4.49062347	     46.29841232	   -381.87969971	   -359.23356418	  -1104.06112007	      0.00000000	      0.00000000	      0.00000000	   1585.37076859	     -5.32265064	    -40.52328826	   -345.53070068	   -346.39068830	   -702.26959298	      0.00000000	      0.00000000	     -0.00000000	  -2050.93180925	      0.00000000	     -0.00000000	      0.00000000	      0.00000000	      0.00000000	      0.00000000	      0.00000000	      0.00000000	      0.00000000
      0.03000000	      0.00000000	     -0.00000000	      0.00000000	      0.00000000	      0.00000000	      0.00000000	      0.00000000	      0.00000000	      0.00000000	      4.07086802	     46.84980392	   -381.98239136	   -358.32876856	  -1105.21355572	      0.00000000	      0.00000000	      0.00000000	   1648.77409957	     -6.06507038	    -40.82091469	   -343.62960815	   -345.24462658	   -701.68848602	      0.00000000	      0.00000000	     -0.00000000	  -2015.00508539	      0.00000000	     -0.00000000	      0.00000000	      0.00000000	      0.00000000	      0.00000000	      0.00000000	      0.00000000	      0.00000000
      0.04000000	      0.00000000	     -0.00000000	      0.00000000	      0.00000000	      0.00000000	      0.00000000	      0.00000000	      0.00000000	      0.00000000	      4.21672440	     46.53355026	   -381.46942139	   -358.41429569	  -1104.97927710	      0.00000000	      0.00000000	      0.00000000	   1742.56413698	     -6.45958643	    -41.41571370	   -342.83102417	   -343.71742378	   -701.15834805	      0.00000000	     -0.00000000	     -0.00000000	  -2018.28139455	      0.00000000	     -0.00000000	      0.00000000	      0.00000000	      0.00000000	      0.00000000	      0.00000000	      0.00000000	      0.00000000
      0.05000000	      0.00000000	     -0.00000000	      0.00000000	      0.00000000	      0.00000000	      0.00000000	      0.00000000	      0.00000000	      0.00000000	      4.13557339	     46.57419586	   -380.43927002	   -357.81349395	  -1103.90582352	      0.00000000	      0.00000000	      0.00000000	   1733.63029830	     -7.11310753	    -41.84830794	   -340.74246216	   -342.97490128	   -700.47502076	      0.00000000	      0.00000000	     -0.00000000	  -2027.89077631	      0.00000000	     -0.00000000	      0.00000000	      0.00000000	      0.00000000	      0.00000000	      0.00000000	      0.00000000	      0.00000000
      0.06000000	      0.00000000	     -0.00000000	      0.00000000	      0.00000000	      0.00000000	      0.00000000	      0.00000000	      0.00000000	      0.00000000	      4.28210449	     46.16153336	   -382.07653809	   -357.41373578	  -1104.89837669	      0.00000000	      0.00000000	      0.00000000	   1656.42690995	     -6.62926563	    -41.80834903	   -338.80432129	   -342.20733619	   -699.31216193	      0.00000000	      0.00000000	     -0.00000000	  -2184.82660938	      0.00000000	     -0.00000000	      0.00000000	      0.00000000	      0.00000000	      0.00000000	      0.00000000	      0.00000000	      0.00000000
      0.07000000	      0.00000000	     -0.00000000	      0.00000000	      0.00000000	      0.00000000	      0.00000000	      0.00000000	      0.00000000	      0.00000000	      3.82755136	     45.86140823	   -381.17532349	   -358.22562101	  -1105.15098420	      0.00000000	      0.00000000	      0.00000000	   1643.31334922	     -6.99205331	    -41.34271179	   -335.97952271	   -341.36462069	   -698.98543198	      0.00000000	      0.00000000	     -0.00000000	  -2222.99328750	      0.00000000	     -0.00000000	      0.00000000	      0.00000000	      0.00000000	      0.00000000	      0.00000000	      0.00000000	      0.00000000
      0.08000000	      0.00000000	     -0.00000000	      0.00000000	      0.00000000	      0.00000000	      0.00000000	      0.00000000	      0.00000000	      0.00000000	      4.21623135	     45.66533661	   -383.33374023	   -357.26028908	  -1106.11647597	      0.00000000	      0.00000000	      0.00000000	   1535.27667837	     -6.91944479	    -40.82058655	   -333.43981934	   -340.84506044	   -699.33167355	      0.00000000	      0.00000000	     -0.00000000	  -2106.75689124	      0.00000000	     -0.00000000	      0.00000000	      0.00000000	      0.00000000	      0.00000000	      0.00000000	      0.00000000	      0.00000000
      0.09000000	      0.00000000	     -0.00000000	      0.00000000	      0.00000000	      0.00000000	      0.00000000	      0.00000000	      0.00000000	      0.00000000	      4.05567503	     45.80384064	   -382.84704590	   -357.30324209	  -1105.38228757	      0.00000000	      0.00000000	      0.00000000	   1535.92474833	     -6.59653019	    -40.78872623	   -332.26666260	   -339.59883121	   -698.97580027	      0.00000000	      0.00000000	     -0.00000000	  -2040.01824287	      0.00000000	     -0.00000000	      0.00000000	      0.00000000	      0.00000000	      0.00000000	      0.00000000	      0.00000000	      0.00000000
      0.10000000	      0.00000000	     -0.00000000	      0.00000000	      0.00000000	      0.00000000	      0.00000000	      0.00000000	      0.00000000	      0.00000000	      4.40320063	     46.12176514	   -383.88107300	   -357.21964081	  -1106.12584157	      0.00000000	      0.00000000	      0.00000000	   1706.76084320	     -6.62150357	    -40.65296115	   -330.68273926	   -339.86163621	   -699.07218935	      0.00000000	      0.00000000	     -0.00000000	  -2081.80632338	      0.00000000	     -0.00000000	      0.00000000	      0.00000000	      0.00000000	      0.00000000	      0.00000000	      0.00000000	      0.00000000
      0.11000000	      0.00000000	     -0.00000000	      0.00000000	      0.00000000	      0.00000000	      0.00000000	      0.00000000	      0.00000000	      0.00000000	      4.51799726	     46.17340088	   -383.45156860	   -357.29455124	  -1105.09023695	      0.00000000	      0.00000000	      0.00000000	   1554.92213249	     -6.82118051	    -40.09804475	   -330.27273560	   -338.72540851	   -697.75983717	      0.00000000	      0.00000000	     -0.00000000	  -2140.79004591	      0.00000000	     -0.00000000	      0.00000000	      0.00000000	      0.00000000	      0.00000000	      0.00000000	      0.00000000	      0.00000000
      0.12000000	      0.00000000	     -0.00000000	      0.00000000	      0.00000000	      0.00000000	      0.00000000	      0.00000000	      0.00000000	      0.00000000	      4.27191114	     45.70250320	   -384.00949097	   -357.29231565	  -1105.37429600	      0.00000000	      0.00000000	      0.00000000	   1443.63385147	     -7.07121918	    -40.65351424	   -328.20251465	   -337.62708229	   -698.46384844	      0.00000000	      0.00000000	     -0.00000000	  -2112.42488621	      0.00000000	     -0.00000000	      0.00000000	      0.00000000	      0.00000000	      0.00000000	      0.00000000	      0.00000000	      0.00000000
      0.13000000	      0.00000000	     -0.00000000	      0.00000000	      0.00000000	      0.00000000	      0.00000000	      0.00000000	      0.00000000	      0.00000000	      5.47860432	     45.78685379	   -384.79989624	   -356.69281329	  -1105.59722869	      0.00000000	      0.00000000	      0.00000000	   1824.24901464	     -7.38889948	    -39.93703396	   -328.20251465	   -336.88850376	   -698.11916803	      0.00000000	      0.00000000	     -0.00000000	  -2079.07928917	      0.00000000	     -0.00000000	      0.00000000	      0.00000000	      0.00000000	      0.00000000	      0.00000000	      0.00000000	      0.00000000
